<?xml version="1.0" encoding="utf-8" standalone="no"?>
<!DOCTYPE svg PUBLIC "-//W3C//DTD SVG 1.1//EN"
  "http://www.w3.org/Graphics/SVG/1.1/DTD/svg11.dtd">
<svg xmlns:xlink="http://www.w3.org/1999/xlink" width="1440pt" height="288pt" viewBox="0 0 1440 288" xmlns="http://www.w3.org/2000/svg" version="1.1">
 <metadata>
  <rdf:RDF xmlns:dc="http://purl.org/dc/elements/1.1/" xmlns:cc="http://creativecommons.org/ns#" xmlns:rdf="http://www.w3.org/1999/02/22-rdf-syntax-ns#">
   <cc:Work>
    <dc:type rdf:resource="http://purl.org/dc/dcmitype/StillImage"/>
    <dc:date>2024-03-03T16:01:45.245261</dc:date>
    <dc:format>image/svg+xml</dc:format>
    <dc:creator>
     <cc:Agent>
      <dc:title>Matplotlib v3.8.2, https://matplotlib.org/</dc:title>
     </cc:Agent>
    </dc:creator>
   </cc:Work>
  </rdf:RDF>
 </metadata>
 <defs>
  <style type="text/css">*{stroke-linejoin: round; stroke-linecap: butt}</style>
 </defs>
 <g id="figure_1">
  <g id="patch_1">
   <path d="M 0 288 
L 1440 288 
L 1440 0 
L 0 0 
z
" style="fill: #ffffff"/>
  </g>
  <g id="axes_1">
   <g id="patch_2">
    <path d="M 16.2 271.8 
L 284.76 271.8 
L 284.76 16.2 
L 16.2 16.2 
z
" style="fill: #ffffff"/>
   </g>
   <g id="matplotlib.axis_1"/>
   <g id="matplotlib.axis_2"/>
   <g id="line2d_1">
    <path d="M 16.2 271.798945 
L 51.873383 271.659269 
L 65.335038 271.400571 
L 74.085113 271.026174 
L 80.81594 270.519229 
L 86.200602 269.887977 
L 90.239098 269.221275 
L 94.277594 268.326746 
L 97.643008 267.353774 
L 101.008421 266.115746 
L 103.700752 264.889292 
L 106.393083 263.408445 
L 109.085414 261.625028 
L 111.104662 260.055971 
L 113.12391 258.259921 
L 115.143158 256.208823 
L 117.162406 253.872685 
L 119.181654 251.219946 
L 121.200902 248.218044 
L 123.22015 244.834217 
L 125.239398 241.036567 
L 127.258647 236.79541 
L 129.277895 232.084904 
L 131.297143 226.88493 
L 133.316391 221.183144 
L 136.008722 212.797596 
L 138.701053 203.544765 
L 141.393383 193.496468 
L 144.758797 180.002869 
L 149.470376 159.984127 
L 156.874286 128.46464 
L 160.239699 115.158749 
L 162.93203 105.300023 
L 165.624361 96.259083 
L 168.316692 88.096298 
L 170.33594 82.562586 
L 172.355188 77.527568 
L 174.374436 72.976071 
L 176.393684 68.885847 
L 178.412932 65.229576 
L 180.43218 61.976669 
L 182.451429 59.094804 
L 184.470677 56.551181 
L 186.489925 54.313496 
L 188.509173 52.350657 
L 190.528421 50.633285 
L 193.220752 48.678331 
L 195.913083 47.052654 
L 198.605414 45.7046 
L 201.297744 44.589369 
L 204.663158 43.464755 
L 208.028571 42.581719 
L 212.067068 41.770499 
L 216.778647 41.081832 
L 222.163308 40.537663 
L 228.894135 40.100951 
L 237.644211 39.778595 
L 250.432782 39.562581 
L 272.644511 39.452682 
L 284.76 39.437227 
L 284.76 39.437227 
" clip-path="url(#pa16d1a2364)" style="fill: none; stroke: #000000; stroke-width: 3; stroke-linecap: square"/>
   </g>
   <g id="patch_3">
    <path d="M 150.48 271.8 
L 150.48 16.2 
" style="fill: none; stroke: #000000; stroke-width: 0.8; stroke-linejoin: miter; stroke-linecap: square"/>
   </g>
   <g id="patch_4">
    <path d="M 284.76 271.8 
L 284.76 16.2 
" style="fill: none"/>
   </g>
   <g id="patch_5">
    <path d="M 16.2 271.809495 
L 284.76 271.809495 
" style="fill: none; stroke: #000000; stroke-width: 0.8; stroke-linejoin: miter; stroke-linecap: square"/>
   </g>
   <g id="patch_6">
    <path d="M 16.2 16.2 
L 284.76 16.2 
" style="fill: none"/>
   </g>
  </g>
  <g id="axes_2">
   <g id="patch_7">
    <path d="M 300.96 271.8 
L 569.52 271.8 
L 569.52 16.2 
L 300.96 16.2 
z
" style="fill: #ffffff"/>
   </g>
   <g id="matplotlib.axis_3"/>
   <g id="matplotlib.axis_4"/>
   <g id="line2d_2">
    <path d="M 300.96 260.181818 
L 383.749173 260.073355 
L 391.153083 259.855382 
L 395.864662 259.524241 
L 399.230075 259.098292 
L 401.922406 258.567479 
L 404.614737 257.779326 
L 406.633985 256.948085 
L 408.653233 255.834678 
L 409.999398 254.891521 
L 411.345564 253.749508 
L 412.691729 252.369451 
L 414.037895 250.705721 
L 415.38406 248.705789 
L 416.730226 246.310039 
L 418.076391 243.452031 
L 419.422556 240.059415 
L 420.768722 236.05579 
L 422.114887 231.363747 
L 423.461053 225.909378 
L 424.807218 219.628345 
L 426.153383 212.473435 
L 427.499549 204.423136 
L 429.518797 190.708306 
L 431.538045 175.242532 
L 434.230376 152.719051 
L 438.941955 112.757468 
L 440.961203 97.291694 
L 442.980451 83.576864 
L 444.999699 71.837824 
L 446.345865 65.124356 
L 447.69203 59.263819 
L 449.038195 54.199415 
L 450.384361 49.861162 
L 451.730526 46.172742 
L 453.076692 43.056783 
L 454.422857 40.438609 
L 455.769023 38.24866 
L 457.115188 36.423837 
L 458.461353 34.90807 
L 459.807519 33.652324 
L 461.153684 32.614257 
L 463.172932 31.387668 
L 465.19218 30.47112 
L 467.211429 29.78789 
L 469.903759 29.140898 
L 473.269173 28.621247 
L 477.307669 28.258939 
L 482.692331 28.016037 
L 491.442406 27.871961 
L 512.30797 27.820586 
L 569.52 27.818182 
L 569.52 27.818182 
" clip-path="url(#paf79e2e9a3)" style="fill: none; stroke: #000000; stroke-width: 3; stroke-linecap: square"/>
   </g>
   <g id="patch_8">
    <path d="M 435.24 271.8 
L 435.24 16.2 
" style="fill: none; stroke: #000000; stroke-width: 0.8; stroke-linejoin: miter; stroke-linecap: square"/>
   </g>
   <g id="patch_9">
    <path d="M 569.52 271.8 
L 569.52 16.2 
" style="fill: none"/>
   </g>
   <g id="patch_10">
    <path d="M 300.96 144 
L 569.52 144 
" style="fill: none; stroke: #000000; stroke-width: 0.8; stroke-linejoin: miter; stroke-linecap: square"/>
   </g>
   <g id="patch_11">
    <path d="M 300.96 16.2 
L 569.52 16.2 
" style="fill: none"/>
   </g>
  </g>
  <g id="axes_3">
   <g id="patch_12">
    <path d="M 585.72 271.8 
L 854.28 271.8 
L 854.28 16.2 
L 585.72 16.2 
z
" style="fill: #ffffff"/>
   </g>
   <g id="matplotlib.axis_5"/>
   <g id="matplotlib.axis_6"/>
   <g id="line2d_3">
    <path d="M 585.72 271.8 
L 719.663459 271.8 
L 720.336541 271.217635 
L 854.28 39.436364 
L 854.28 39.436364 
" clip-path="url(#p70d0a51f72)" style="fill: none; stroke: #000000; stroke-width: 3; stroke-linecap: square"/>
   </g>
   <g id="patch_13">
    <path d="M 720 271.8 
L 720 16.2 
" style="fill: none; stroke: #000000; stroke-width: 0.8; stroke-linejoin: miter; stroke-linecap: square"/>
   </g>
   <g id="patch_14">
    <path d="M 854.28 271.8 
L 854.28 16.2 
" style="fill: none"/>
   </g>
   <g id="patch_15">
    <path d="M 585.72 271.8 
L 854.28 271.8 
" style="fill: none; stroke: #000000; stroke-width: 0.8; stroke-linejoin: miter; stroke-linecap: square"/>
   </g>
   <g id="patch_16">
    <path d="M 585.72 16.2 
L 854.28 16.2 
" style="fill: none"/>
   </g>
  </g>
  <g id="axes_4">
   <g id="patch_17">
    <path d="M 870.48 271.8 
L 1139.04 271.8 
L 1139.04 16.2 
L 870.48 16.2 
z
" style="fill: #ffffff"/>
   </g>
   <g id="matplotlib.axis_7"/>
   <g id="matplotlib.axis_8"/>
   <g id="line2d_4">
    <path d="M 870.48 264.054545 
L 1004.423459 186.794122 
L 1005.096541 186.211757 
L 1139.04 31.690909 
L 1139.04 31.690909 
" clip-path="url(#pe56dbcb0df)" style="fill: none; stroke: #000000; stroke-width: 3; stroke-linecap: square"/>
   </g>
   <g id="patch_18">
    <path d="M 1004.76 271.8 
L 1004.76 16.2 
" style="fill: none; stroke: #000000; stroke-width: 0.8; stroke-linejoin: miter; stroke-linecap: square"/>
   </g>
   <g id="patch_19">
    <path d="M 1139.04 271.8 
L 1139.04 16.2 
" style="fill: none"/>
   </g>
   <g id="patch_20">
    <path d="M 870.48 186.6 
L 1139.04 186.6 
" style="fill: none; stroke: #000000; stroke-width: 0.8; stroke-linejoin: miter; stroke-linecap: square"/>
   </g>
   <g id="patch_21">
    <path d="M 870.48 16.2 
L 1139.04 16.2 
" style="fill: none"/>
   </g>
  </g>
  <g id="axes_5">
   <g id="patch_22">
    <path d="M 1155.24 271.8 
L 1423.8 271.8 
L 1423.8 16.2 
L 1155.24 16.2 
z
" style="fill: #ffffff"/>
   </g>
   <g id="matplotlib.axis_9"/>
   <g id="matplotlib.axis_10"/>
   <g id="line2d_5">
    <path d="M 1155.24 267.529567 
L 1250.144662 267.632331 
L 1256.202406 267.890824 
L 1260.913985 268.331416 
L 1264.952481 268.9375 
L 1269.66406 269.886477 
L 1275.721805 271.103731 
L 1278.414135 271.388541 
L 1280.433383 271.385174 
L 1282.452632 271.129638 
L 1284.47188 270.565936 
L 1285.818045 269.99499 
L 1287.164211 269.254679 
L 1288.510376 268.337039 
L 1290.529624 266.619133 
L 1292.548872 264.492863 
L 1294.56812 261.976409 
L 1296.587368 259.1043 
L 1299.279699 254.80498 
L 1302.645113 248.866582 
L 1307.356692 239.978483 
L 1316.77985 222.125429 
L 1322.837594 211.199944 
L 1330.914586 197.158997 
L 1350.433985 163.8827 
L 1423.8 39.048142 
L 1423.8 39.048142 
" clip-path="url(#pc49b711c87)" style="fill: none; stroke: #000000; stroke-width: 3; stroke-linecap: square"/>
   </g>
   <g id="patch_23">
    <path d="M 1289.52 271.8 
L 1289.52 16.2 
" style="fill: none; stroke: #000000; stroke-width: 0.8; stroke-linejoin: miter; stroke-linecap: square"/>
   </g>
   <g id="patch_24">
    <path d="M 1423.8 271.8 
L 1423.8 16.2 
" style="fill: none"/>
   </g>
   <g id="patch_25">
    <path d="M 1155.24 267.529567 
L 1423.8 267.529567 
" style="fill: none; stroke: #000000; stroke-width: 0.8; stroke-linejoin: miter; stroke-linecap: square"/>
   </g>
   <g id="patch_26">
    <path d="M 1155.24 16.2 
L 1423.8 16.2 
" style="fill: none"/>
   </g>
  </g>
 </g>
 <defs>
  <clipPath id="pa16d1a2364">
   <rect x="16.2" y="16.2" width="268.56" height="255.6"/>
  </clipPath>
  <clipPath id="paf79e2e9a3">
   <rect x="300.96" y="16.2" width="268.56" height="255.6"/>
  </clipPath>
  <clipPath id="p70d0a51f72">
   <rect x="585.72" y="16.2" width="268.56" height="255.6"/>
  </clipPath>
  <clipPath id="pe56dbcb0df">
   <rect x="870.48" y="16.2" width="268.56" height="255.6"/>
  </clipPath>
  <clipPath id="pc49b711c87">
   <rect x="1155.24" y="16.2" width="268.56" height="255.6"/>
  </clipPath>
 </defs>
</svg>
